<?xml version="1.0" standalone="no"?>
<!DOCTYPE svg PUBLIC "-//W3C//DTD SVG 20010904//EN"
 "http://www.w3.org/TR/2001/REC-SVG-20010904/DTD/svg10.dtd">
<svg version="1.0" xmlns="http://www.w3.org/2000/svg"
 width="2439.000000pt" height="4096.000000pt" viewBox="0 0 2439.000000 4096.000000"
 preserveAspectRatio="xMidYMid meet">
<metadata>
Created by potrace 1.16, written by Peter Selinger 2001-2019
</metadata>
<g transform="translate(0.000000,4096.000000) scale(0.100000,-0.100000)"
fill="#000000" stroke="none">
<path d="M0 20475 l0 -20475 2400 0 2400 0 2 10694 3 10695 540 -195 c297
-107 943 -339 1435 -516 492 -176 1401 -502 2020 -725 619 -223 1519 -546
2000 -718 481 -172 1177 -422 1545 -555 369 -133 1098 -395 1620 -582 1167
-418 1315 -471 1930 -693 270 -97 972 -349 1560 -560 589 -211 1308 -469 1599
-574 291 -105 530 -191 532 -191 2 0 4 -3618 4 -8040 l0 -8040 2400 0 2400 0
-3 11618 c-2 8681 -6 11676 -15 11852 -34 694 -57 1038 -98 1475 -293 3164
-1169 5977 -2609 8380 -1232 2056 -2921 3783 -4915 5027 -2215 1382 -4783
2223 -7610 2492 -412 39 -581 52 -1215 88 -141 8 -1332 12 -4062 15 l-3863 4
0 -20476z m7435 16265 c1650 -70 3133 -383 4435 -938 1012 -430 2064 -1074
2919 -1785 1537 -1278 2767 -3013 3573 -5037 648 -1629 1057 -3483 1183 -5365
34 -511 37 -651 42 -1719 5 -1076 4 -1109 -13 -1102 -54 21 -1741 632 -2559
926 -517 186 -1196 431 -1510 545 -313 114 -1099 397 -1745 630 -646 233
-1375 496 -1620 585 -245 89 -974 352 -1620 585 -646 233 -1512 545 -1925 695
-412 149 -1117 404 -1565 565 -707 254 -2162 780 -2212 800 -17 7 -18 269 -18
5316 l0 5309 1198 0 c658 0 1305 -5 1437 -10z"/>
</g>
</svg>
